Coordinates
version=1
nRows=13
nColumns=40
inDegrees=yes

Units are S.I. units (second, meters, Newtons, ...)
If the header above contains a line with 'inDegrees', this indicates whether rotational values are in degrees (yes) or radians (no).

endheader
time	pelvis_tilt	pelvis_list	pelvis_rotation	pelvis_tx	pelvis_ty	pelvis_tz	hip_flexion_r	hip_adduction_r	hip_rotation_r	knee_angle_r	knee_angle_r_beta	ankle_angle_r	subtalar_angle_r	mtp_angle_r	hip_flexion_l	hip_adduction_l	hip_rotation_l	knee_angle_l	knee_angle_l_beta	ankle_angle_l	subtalar_angle_l	mtp_angle_l	lumbar_extension	lumbar_bending	lumbar_rotation	arm_flex_r	arm_add_r	arm_rot_r	elbow_flex_r	pro_sup_r	wrist_flex_r	wrist_dev_r	arm_flex_l	arm_add_l	arm_rot_l	elbow_flex_l	pro_sup_l	wrist_flex_l	wrist_dev_l
      0.71200000	     13.35617299	     -4.37895178	     -3.43930873	      0.89105133	      0.93386686	     -0.30434290	    -29.76816963	      6.39287037	     -3.01015397	     17.88505488	      0.31215309	     -2.29754190	      0.00000000	      0.00000000	     18.09428398	     -3.45128116	     -0.42585709	     14.88467899	      0.25978666	    -14.35491619	      0.00000000	      0.00000000	    -29.11049776	      2.80359751	      7.90146253	     11.26992107	    -21.12878365	     13.48399186	     50.84233846	     73.98014215	      0.00000000	      0.00000000	      3.00302142	    -20.22920339	     18.32378756	     47.15283299	     79.79006372	      0.00000000	      0.00000000
      0.71600000	     13.22112574	     -4.34075072	     -3.56650157	      0.89753469	      0.93303971	     -0.30435337	    -29.76865081	      6.20631586	     -2.83700666	     18.34889868	      0.32024870	     -2.63838844	      0.00000000	      0.00000000	     18.26797160	     -3.34036420	     -0.14600409	     15.54697817	      0.27134596	    -14.40533774	      0.00000000	      0.00000000	    -28.90156032	      2.69326765	      7.92976494	     11.10844095	    -21.07282532	     13.39130528	     50.68557692	     73.98360319	      0.00000000	      0.00000000	      2.90637618	    -20.18189714	     18.31784289	     47.02820285	     79.81571770	      0.00000000	      0.00000000
      0.72000000	     13.09475501	     -4.29591577	     -3.64530975	      0.90406317	      0.93221001	     -0.30431023	    -29.76789806	      6.03081993	     -2.69328179	     18.81404527	      0.32836704	     -3.04593934	      0.00000000	      0.00000000	     18.44883220	     -3.21210332	      0.12373000	     16.26879570	      0.28394405	    -14.59083012	      0.00000000	      0.00000000	    -28.68276337	      2.59900132	      7.91551957	     10.91530485	    -20.98891151	     13.28337738	     50.53570314	     73.98301212	      0.00000000	      0.00000000	      2.78779509	    -20.16076873	     18.36990201	     46.97635159	     79.87628706	      0.00000000	      0.00000000
      0.72400000	     13.06291266	     -4.28368529	     -3.76483639	      0.91012638	      0.93152426	     -0.30429029	    -29.78042452	      5.86347728	     -2.55983063	     19.39000464	      0.33841942	     -3.51103340	      0.00000000	      0.00000000	     18.64829999	     -3.15450767	      0.14832460	     17.16029965	      0.29950373	    -15.14898721	      0.00000000	      0.00000000	    -28.64718224	      2.50943813	      7.95699154	     10.83793297	    -20.93112578	     13.13457457	     50.40441870	     73.98188208	      0.00000000	      0.00000000	      2.78290444	    -20.09360872	     18.29032354	     46.83611402	     79.80764235	      0.00000000	      0.00000000
      0.72800000	     12.92298562	     -4.30830566	     -3.82377300	      0.91698422	      0.93062995	     -0.30387128	    -29.77636584	      5.79830734	     -2.41340700	     19.86553799	      0.34671905	     -4.01156902	      0.00000000	      0.00000000	     18.88885220	     -3.16508151	      0.21048532	     17.87658727	      0.31200531	    -16.13164201	      0.00000000	      0.00000000	    -28.38589797	      2.45961408	      7.95200380	     10.59498504	    -20.80394051	     12.97287166	     50.27210923	     73.99831072	      0.00000000	      0.00000000	      2.64491944	    -20.15252114	     18.25597889	     46.69597063	     79.83966608	      0.00000000	      0.00000000
      0.73200000	     12.87120671	     -4.38769548	     -3.95594503	      0.92323405	      0.93006994	     -0.30360295	    -29.77895164	      5.71648697	     -2.26661704	     20.39588608	      0.35597537	     -4.65068045	      0.00000000	      0.00000000	     19.07088322	     -3.25771397	      0.04729879	     18.55253886	      0.32380289	    -17.35709680	      0.00000000	      0.00000000	    -28.31133733	      2.43480216	      8.00880625	     10.45814093	    -20.69614476	     12.79707493	     50.14854167	     74.05959608	      0.00000000	      0.00000000	      2.58865390	    -20.10539644	     18.29955650	     46.59117219	     79.77205170	      0.00000000	      0.00000000
      0.73600000	     12.79384617	     -4.26727719	     -3.98794758	      0.92965876	      0.92948778	     -0.30344759	    -29.78084380	      5.51891485	     -2.03360128	     20.86949545	      0.36424141	     -5.20766911	      0.00000000	      0.00000000	     19.26220485	     -3.06602645	      0.38758675	     19.17120036	      0.33460057	    -18.22137998	      0.00000000	      0.00000000	    -28.17695101	      2.25005185	      7.94442309	     10.24412226	    -20.55614508	     12.53122194	     49.98422877	     74.08696835	      0.00000000	      0.00000000	      2.40358777	    -20.19307589	     18.19397398	     46.72279439	     79.72367509	      0.00000000	      0.00000000
      0.74000000	     12.77371345	     -4.21204045	     -4.03802340	      0.93589861	      0.92913633	     -0.30342022	    -29.78205407	      5.34938622	     -1.84629465	     21.40306959	      0.37355403	     -5.90346038	      0.00000000	      0.00000000	     19.41363080	     -2.96841885	      0.57559004	     19.85224038	      0.34648696	    -18.85921515	      0.00000000	      0.00000000	    -28.12629426	      2.15124495	      7.84571225	     10.16866274	    -20.40387054	     12.41614505	     49.77351528	     74.13491520	      0.00000000	      0.00000000	      2.50684106	    -20.14139681	     18.26220118	     46.33493926	     79.78995115	      0.00000000	      0.00000000
      0.74400000	     12.71262811	     -4.07477910	     -4.03438511	      0.94247875	      0.92870968	     -0.30335364	    -29.77316100	      5.15298397	     -1.65579226	     21.90289053	      0.38227756	     -6.57573659	      0.00000000	      0.00000000	     19.60851168	     -2.78529794	      0.87770918	     20.59789423	      0.35950107	    -19.31031411	      0.00000000	      0.00000000	    -27.97133100	      1.94943619	      7.75860803	      9.91303320	    -20.29069686	     12.22329671	     49.61332454	     74.15985712	      0.00000000	      0.00000000	      2.33151479	    -20.25136922	     18.20392225	     46.42145269	     79.81493970	      0.00000000	      0.00000000
      0.74800000	     12.74066170	     -3.96457514	     -4.07132047	      0.94866139	      0.92853683	     -0.30341163	    -29.78195354	      4.93732853	     -1.48322910	     22.45160790	      0.39185448	     -7.41913626	      0.00000000	      0.00000000	     19.81816541	     -2.63206189	      1.05729644	     21.58921407	      0.37680287	    -19.66483394	      0.00000000	      0.00000000	    -27.99336371	      1.78331845	      7.60309943	      9.84039486	    -20.12673959	     12.05772079	     49.39103188	     74.21460106	      0.00000000	      0.00000000	      2.42363768	    -20.16800193	     18.25255136	     46.13649817	     79.73232983	      0.00000000	      0.00000000
      0.75200000	     12.67392630	     -3.96988198	     -4.00271128	      0.95560298	      0.92819380	     -0.30326264	    -29.77513567	      4.89869478	     -1.55579078	     22.87922095	      0.39931774	     -8.54910873	      0.00000000	      0.00000000	     20.15251409	     -2.59240399	      1.13613845	     22.76245240	      0.39727974	    -19.69020644	      0.00000000	      0.00000000	    -27.81097462	      1.76623553	      7.49342329	      9.55285441	    -19.94233970	     11.76116124	     49.15794715	     74.35691640	      0.00000000	      0.00000000	      2.18346744	    -20.27327359	     18.18349611	     46.22593874	     79.68807673	      0.00000000	      0.00000000
      0.75600000	     12.65003879	     -3.82360668	     -3.97089820	      0.96257197	      0.92796897	     -0.30355532	    -29.77165332	      4.65226905	     -1.54677305	     23.36323251	      0.40776533	     -9.56044146	      0.00000000	      0.00000000	     20.36519062	     -2.38071206	      1.23675094	     23.83974778	      0.41608209	    -19.72139683	      0.00000000	      0.00000000	    -27.65002529	      1.62635492	      7.30289190	      9.31068769	    -19.80492247	     11.59811103	     48.87028274	     74.48508002	      0.00000000	      0.00000000	      2.29088709	    -20.14426041	     18.34048560	     45.64412531	     79.57379872	      0.00000000	      0.00000000
      0.76000000	     12.59157379	     -3.64376382	     -3.78405292	      0.96992625	      0.92771484	     -0.30329216	    -29.77180577	      4.52453473	     -1.68377596	     23.79009699	      0.41521552	    -10.66675289	      0.00000000	      0.00000000	     20.55863393	     -2.13958801	      1.47317098	     24.83466181	      0.43344662	    -19.79340983	      0.00000000	      0.00000000	    -27.42994411	      1.43806389	      7.00558564	      8.92203471	    -19.49846961	     11.10063755	     48.69666547	     74.46498585	      0.00000000	      0.00000000	      1.95932581	    -20.38757778	     18.23465653	     45.91624233	     79.57523138	      0.00000000	      0.00000000
